<svg class="svg svg-icon-touchdevelop" viewBox="45 25 375 380" xmlns="http://www.w3.org/2000/svg" aria-label="connect"><path d="M187.653 132.628l-31.281.38c-3.833.047-7.175.09-10.22.137l-11.114-.02a64.05 64.05 0 00-4.24.156l-5.529.012-4.95 1.459c-2.807.607-5.194 1.455-8.369 2.666a59.02 59.02 0 00-6.884 3.162l-.332.176c-.139.076-.276.156-.414.233-9.132 4.949-17.136 12.029-23.477 20.65-.072.096-.139.197-.21.294a76.45 76.45 0 00-1.486 2.092 78.98 78.98 0 00-2.172 3.316c-.09.145-.198.355-.292.515-2.84 4.638-5.14 9.523-6.768 14.5-.662 1.704-1.164 3.16-1.378 4.1l-.422 1.86-1.832.022H31.44l-.022.2h-.22l-.013.202h-.072l-.632 10.98c-.778 12.457-2.065 35.646-2.065 38.029 0 .03.014.056.018.085l-.054.952h.178l-.004.352H70.618l.83 1.817c.27.942.823 2.195 1.598 3.705.442.86.951 1.797 1.508 2.774 7.22 13.858 18.27 25.002 31.562 31.693a65.927 65.927 0 002.46 1.185c.513.232 1.03.453 1.548.672.419.177.835.361 1.257.53.601.238 1.212.456 1.82.676 1.013.368 2.036.709 3.068 1.027.17.051.34.107.51.158.826.246 1.658.472 2.495.685l.132.033a63.7 63.7 0 002.657.616v.024l.297.059c.15.03.38.055.552.083a63.668 63.668 0 0012.126 1.185h52.815v-.095l.379.002v-30.009l-.379-.004v-.464h-36.6c-17.343-.261-23.438-.588-26.32-1.404l-2.393-.875a42.735 42.735 0 01-4.093-1.751c-8.058-4.069-14.773-10.646-19.22-18.716-2.674-5.015-4.48-10.625-5.265-16.612-.415-4.82-.32-10.84.276-15.274a47.69 47.69 0 015.442-15.267c4.331-7.512 10.704-13.69 18.319-17.63.481-.25.968-.503 1.428-.723a42.22 42.22 0 012.214-.97c2.195-.847 4.522-1.413 7.879-1.788 1.655-.185 3.67-.314 5.924-.418l21.659-.178 17.774-.145 13.39-.006-.201-15.285-.2-15.273h-.213v-.545zm91.61.011v.141h-.638v.446h-.044v30.504h.044v.004h.639v.734l31.191.05c17.175.028 27.583.64 34.965 2.921 7.382 2.28 11.82 6.157 17.378 13.105 15.947 19.935 12.163 51.166-8.105 66.598-3.973 3.025-5.91 4.424-11.087 5.286-5.177.861-13.58 1.085-29.92 1.433l-34.422.734v.896h-.683v30.57h.044v.002l.213-.002h.426v.033l1.494-.033h50.647c3.986 0 7.89-.389 11.695-1.099 2.337-.277 3.883-.66 5.766-1.232.442-.135.913-.306 1.37-.46 4.153-.913 7.097-2.37 10.992-4.589a68.97 68.97 0 0013.777-9.52c5.666-5.008 10.602-10.965 14.61-17.654 1.147-1.823 2.191-3.654 3.084-5.474l3.382-6.894h15.297c4.36 0 8.325-.022 11.199-.058 1.437-.018 2.602-.04 3.41-.063.404-.012.716-.024.935-.038.109-.006.193-.014.26-.022.034-.004.063-.007.102-.017.02-.004.04-.007.084-.031a.296.296 0 00.042-.024 1.06 1.06 0 00.058-.049l.076-.11.04-.197v-.002c0-.054 0-.066-.01-.154 0-.09-.012-.22-.022-.39l-.084-1.454-.31-5.264-.699-11.816c-.11-7.617-.585-16.134-1.207-20.54l-.122-2.07c-.131-2.248-.237-4.091-.31-5.391-.038-.65-.068-1.166-.087-1.528-.02-.36-.03-.606-.03-.593v-.002c0-.015-.01-.023-.01-.037l-.043-.75h-3.772c-.143-.006-.207-.017-.356-.024-2.373-.108-5.637-.176-9.227-.176-5.883 0-9.157-.035-10.97-.222a6.99 6.99 0 01-1.316-.242l-2.55-5.546-.045-.12c-6.303-17.974-18.61-32.693-34.218-41.177a54.738 54.738 0 00-3.402-1.899c-3.07-1.552-5.857-2.655-9.549-3.45a63.68 63.68 0 00-17.844-2.556l-1.764.004c-.946-.03-1.648-.07-2.687-.097a838.628 838.628 0 00-21.03-.253l-20.34-.002-6.32-.14zm27.03 60.549c-5.495-.003-11.885.018-19.23.061l-19.346.114h-18.455c-.653 0-1.295.048-1.932.121l-2.679.015-2.873 1.627c-5.473 2.701-9.345 8.264-9.345 14.913 0 5.027 2.222 9.422 5.665 12.441.01.011.021.02.032.029a16.837 16.837 0 003.976 2.633c.159.075.34.143.543.209a16.9 16.9 0 006.613 1.353h79.996a16.92 16.92 0 007.68-1.852c.728-.253 1.365-.536 1.89-.884.72-.475 1.292-1.055 1.853-1.71a16.538 16.538 0 004.389-6.516c.076-.191.152-.386.218-.58.027-.082.049-.166.074-.248.117-.372.219-.755.3-1.145.275-1.196.433-2.44.433-3.73 0-9.414-7.75-16.676-16.837-16.676h-4.317c-1.421-.036-3-.067-4.795-.092-3.762-.052-8.36-.08-13.854-.083z" fill="currentColor"/></svg>