<svg class="svg svg-icon-touchdevelop" viewBox="-10 -180 560 700" xmlns="http://www.w3.org/2000/svg" aria-label="flash"><path d="M257.596-156.902c-2.86 0-5.338 1.068-7.473 3.203s-3.203 4.69-3.203 7.627v97.988h-43.315c-4.69 0-8.007 2.21-9.914 6.557-1.944 4.69-1.18 8.655 2.29 11.896l75.646 75.649c2.02 2.135 4.577 3.203 7.627 3.203s5.566-1.068 7.625-3.203l75.648-75.649c3.432-3.24 4.194-7.206 2.287-11.896-1.83-4.347-5.148-6.557-9.914-6.557h-43.162v-97.988c0-2.936-1.068-5.492-3.203-7.627s-4.689-3.203-7.625-3.203h-43.314zM239.986-29.98c.045.01.088.018.133.029a4.991 4.991 0 01-1.85.252 16.073 16.073 0 001.717-.281zm122.366 6.1c-.24.041-.491.064-.743.083.243.02.524.13.69-.031l.053-.053zm-47.069 41.954c-.086.029-.172.055-.258.082.128.168.243.332.362.496a4 4 0 01.388-.422c-.164-.052-.326-.1-.492-.156zm-43.17 10.92c.181.058.36.12.541.176-.021.01-.038.023-.06.033-.24-.003-.48-.001-.721-.004.02-.025.032-.055.053-.08.036-.045.118-.084.187-.125zm-90.508 37.871c-69.832 0-126.664 56.831-126.664 126.711s56.594 126.377 127.239 126.377l189.515.334v.002c69.833 0 126.666-56.833 126.666-126.713s-56.833-126.71-126.666-126.71h-190.09zm0 50.664h190.09c41.872 0 76 34.129 76 76.047 0 41.919-34.128 75.998-76 75.998h-190.09c-41.871 0-75.998-34.08-75.998-75.998 0-41.918 34.127-76.047 75.998-76.047zm2.2 50.475c-14.148 0-25.573 11.472-25.573 25.572s11.425 25.572 25.573 25.572 25.572-11.472 25.572-25.572-11.424-25.572-25.572-25.572zm187.843 0c-14.1 0-25.572 11.472-25.572 25.572s11.472 25.572 25.572 25.572c14.149 0 25.622-11.472 25.622-25.572s-11.473-25.572-25.622-25.572z" fill="currentColor"/></svg>