<svg class="svg svg-icon-touchdevelop" viewBox="50 50 380 380" xmlns="http://www.w3.org/2000/svg" aria-label="serial"><path d="M123.705 148.35c-2.897.712-3.12 4.346-2.522 6.735.08 14.711-.22 29.427.274 44.134 3.325 3.91 8.885 4.225 13.028 6.899l56.956 25.916c-23.087 10.54-46.234 20.95-69.226 31.695-2.406 3.98-.376 8.723-1.016 13.036.018 12.597-.242 25.202.313 37.792 1.427 2.217 4.745 1.584 6.328-.106 39.471-19.908 78.953-39.796 118.384-59.786 2.456-3.868.452-8.566 1.064-12.797-.001-10.443.235-20.894-.303-31.327-3.926-4.288-10.104-5.033-14.764-8.272-35.925-18-71.814-36.073-107.834-53.882-.227-.016-.454-.054-.682-.038zm233.853 151.798c-41.11.162-82.22.066-123.329.215-2.799 1.273-2.469 4.903-2.053 7.384.084 9.4-.473 18.827.447 28.202 2.562 2.595 6.514 1.103 9.702 1.345 39.231-.019 78.463.064 117.694-.175 2.709-1.448 2.263-5.05 1.9-7.597-.06-9.312.424-18.648-.42-27.938-.819-1.317-2.544-1.47-3.941-1.436z" fill="currentColor"/></svg>